<svg width="208" height="30" viewBox="0 0 208 30" fill="none" xmlns="http://www.w3.org/2000/svg">
<g id="ALLIANCE">
<path d="M12.9706 0.878815H17.236L29.1713 28.5843H23.5363L20.9536 22.2449H8.94004L6.43559 28.5843H0.917969L12.9706 0.878815ZM19.2318 18.0187L14.9664 6.74862L10.6227 18.0187H19.2318Z" fill="white"/>
<path d="M34.5981 0.878815H39.5288V24.1233H53.4815V28.5843H34.5981V0.878815Z" fill="white"/>
<path d="M57.2382 0.878815H62.1688V24.1233H76.1216V28.5843H57.2382V0.878815Z" fill="white"/>
<path d="M79.7608 0.878815H84.6915V28.5843H79.7608V0.878815Z" fill="white"/>
<path d="M102.079 0.878815H106.344L118.279 28.5843H112.644L110.062 22.2449H98.048L95.5436 28.5843H90.0259L102.079 0.878815ZM108.34 18.0187L104.074 6.74862L99.7307 18.0187H108.34Z" fill="white"/>
<path d="M123.706 0.878815H130.241L143.663 21.4623H143.742V0.878815H148.672V28.5843H142.411L128.715 7.3356H128.637V28.5843H123.706V0.878815Z" fill="white"/>
<path d="M176.217 7.37473C175.2 6.27904 174.209 5.54857 173.243 5.18334C172.304 4.81811 171.352 4.63549 170.387 4.63549C168.952 4.63549 167.647 4.89637 166.473 5.41814C165.326 5.91381 164.334 6.61818 163.499 7.53126C162.665 8.41826 162.012 9.46178 161.543 10.6618C161.099 11.8619 160.878 13.1532 160.878 14.5359C160.878 16.0229 161.099 17.3925 161.543 18.6448C162.012 19.897 162.665 20.9797 163.499 21.8927C164.334 22.8058 165.326 23.5232 166.473 24.045C167.647 24.5668 168.952 24.8276 170.387 24.8276C171.508 24.8276 172.591 24.5668 173.635 24.045C174.704 23.4971 175.696 22.6362 176.609 21.4623L180.678 24.3581C179.426 26.0799 177.9 27.3321 176.1 28.1147C174.3 28.8974 172.382 29.2887 170.348 29.2887C168.208 29.2887 166.239 28.9495 164.439 28.2713C162.665 27.5669 161.125 26.5886 159.821 25.3364C158.543 24.058 157.538 22.5319 156.808 20.7579C156.077 18.9839 155.712 17.0143 155.712 14.849C155.712 12.6315 156.077 10.6227 156.808 8.82262C157.538 6.99646 158.543 5.44422 159.821 4.16591C161.125 2.88759 162.665 1.90929 164.439 1.231C166.239 0.526626 168.208 0.174438 170.348 0.174438C172.226 0.174438 173.961 0.513582 175.552 1.19187C177.17 1.84407 178.67 2.96586 180.052 4.55723L176.217 7.37473Z" fill="white"/>
<path d="M186.336 0.878815H207.297V5.33987H191.266V12.1488H206.593V16.6099H191.266V24.1233H208.002V28.5843H186.336V0.878815Z" fill="white"/>
</g>
</svg>
