<svg width="129" height="45" viewBox="0 0 129 45" fill="none" xmlns="http://www.w3.org/2000/svg">
<g id="Frame" clip-path="url(#clip0_8758_23368)">
<path id="Vector" d="M4.60636 6.99437H0.570312V0.117554H20.7506C29.009 0.117554 34.7836 5.89221 34.7836 14.4766C34.7836 23.061 29.009 29.0064 20.7506 29.0064H12.7406V44.2192H4.59085L4.60636 6.99437ZM19.2603 22.0209C23.8552 22.0209 26.4631 19.0404 26.4631 14.4455C26.4631 9.91275 23.8552 6.99437 19.3845 6.99437H12.7406V22.0209H19.2603Z" fill="white"/>
<path id="Vector_2" d="M52.8516 11.791C61.9172 11.791 66.8847 18.435 66.8847 26.8175C66.8847 27.7489 66.6984 29.7359 66.6984 29.7359H44.8416C45.4626 35.3243 49.5607 38.2427 54.3419 38.2427C59.4335 38.2427 63.2212 34.7034 63.2212 34.7034L66.5121 40.1676C62.9915 43.2558 58.4662 44.9556 53.7831 44.9487C43.3048 44.9487 36.7695 37.3734 36.7695 28.3699C36.7695 18.6368 43.3514 11.791 52.8516 11.791ZM58.8126 24.2717C58.6884 20.4841 56.096 17.8761 52.8516 17.8761C48.8156 17.8761 45.9593 20.2978 45.09 24.2717H58.8126Z" fill="white"/>
<path id="Vector_3" d="M90.2322 24.3338H91.2257V24.0699C91.2257 19.5371 89.425 17.8606 85.4044 17.8606C83.9763 17.8606 81.1821 18.2487 81.1821 19.9718V21.6483H73.859V18.2953C73.859 12.3964 82.1795 11.7755 85.4704 11.7755C96.0262 11.7755 99.1309 17.3018 99.1309 24.3804V36.1781C99.1113 36.3623 99.1332 36.5485 99.195 36.7231C99.2567 36.8978 99.3567 37.0564 99.4877 37.1874C99.6186 37.3183 99.7773 37.4183 99.9519 37.4801C100.127 37.5418 100.313 37.5637 100.497 37.5441H102.965V44.1881H95.8826C92.9643 44.1881 91.8466 42.5737 91.8466 40.6954C91.8466 39.8882 91.9087 39.3293 91.9087 39.3293H91.7845C91.7845 39.3293 89.3629 44.9177 82.2222 44.9177C76.5717 44.9177 71.418 41.3784 71.418 35.0449C71.418 25.141 85.0784 24.3338 90.2322 24.3338ZM84.147 38.8171C88.3694 38.8171 91.3498 34.3464 91.3498 30.4966V29.7359H89.9838C85.8856 29.7359 79.3659 30.2948 79.3659 34.7034C79.3659 36.8146 80.9182 38.8171 84.147 38.8171Z" fill="white"/>
<path id="Vector_4" d="M109.295 20.6083C109.295 19.6769 108.798 19.2423 107.929 19.2423H105.445V12.5362H112.668C115.462 12.5362 116.89 13.7005 116.89 16.386V18.2488C116.894 18.9132 116.853 19.5771 116.766 20.2358H116.89C118.318 15.703 122.106 12.0861 126.949 12.0861C127.427 12.0937 127.905 12.1352 128.377 12.2102V19.9719C127.734 19.8856 127.086 19.8441 126.437 19.8477C123.084 19.8477 119.234 21.7881 117.806 26.4917C117.345 28.1706 117.115 29.9044 117.123 31.6454V44.1882H109.295V20.6083Z" fill="white"/>
</g>
<defs>
<clipPath id="clip0_8758_23368">
<rect width="127.788" height="44.8312" fill="white" transform="translate(0.570312 0.117554)"/>
</clipPath>
</defs>
</svg>
