<svg width="98" height="97" viewBox="0 0 98 97" fill="none" xmlns="http://www.w3.org/2000/svg">
<g filter="url(#filter0_d_8758_27889)">
<circle cx="49.0018" cy="48.5142" r="18.033" fill="url(#paint0_linear_8758_27889)"/>
<path d="M54.4104 44.8926C54.0259 44.6714 53.5315 44.6714 53.0921 44.8926L50.016 46.7173L47.9286 47.8784L44.9074 49.7032C44.5229 49.9243 44.0285 49.9243 43.589 49.7032L41.227 48.2655C40.8425 48.0443 40.5678 47.602 40.5678 47.1043V44.3396C40.5678 43.8973 40.7876 43.4549 41.227 43.1784L43.589 41.7961C43.9736 41.5749 44.4679 41.5749 44.9074 41.7961L47.2694 43.2337C47.6539 43.4549 47.9286 43.8973 47.9286 44.3949V46.2196L50.016 45.0032V43.1232C50.016 42.6808 49.7962 42.2384 49.3568 41.962L44.9623 39.3631C44.5778 39.142 44.0834 39.142 43.644 39.3631L39.1396 42.0173C38.7002 42.2384 38.4805 42.6808 38.4805 43.1232V48.3208C38.4805 48.7632 38.7002 49.2055 39.1396 49.482L43.589 52.0808C43.9736 52.302 44.4679 52.302 44.9074 52.0808L47.9286 50.3114L50.016 49.0949L53.0372 47.3255C53.4217 47.1043 53.9161 47.1043 54.3555 47.3255L56.7175 48.7079C57.102 48.929 57.3767 49.3714 57.3767 49.869V52.6337C57.3767 53.0761 57.157 53.5185 56.7175 53.7949L54.4104 55.1773C54.0259 55.3985 53.5315 55.3985 53.0921 55.1773L50.7301 53.7949C50.3455 53.5737 50.0709 53.1314 50.0709 52.6337V50.8643L47.9835 52.0808V53.9055C47.9835 54.3479 48.2032 54.7902 48.6427 55.0667L53.0921 57.6655C53.4766 57.8867 53.971 57.8867 54.4104 57.6655L58.8598 55.0667C59.2443 54.8455 59.519 54.4032 59.519 53.9055V48.6526C59.519 48.2102 59.2993 47.7679 58.8598 47.4914L54.4104 44.8926Z" fill="#10151A"/>
</g>
<defs>
<filter id="filter0_d_8758_27889" x="0.753323" y="0.265774" width="96.4973" height="96.497" filterUnits="userSpaceOnUse" color-interpolation-filters="sRGB">
<feFlood flood-opacity="0" result="BackgroundImageFix"/>
<feColorMatrix in="SourceAlpha" type="matrix" values="0 0 0 0 0 0 0 0 0 0 0 0 0 0 0 0 0 0 127 0" result="hardAlpha"/>
<feOffset/>
<feGaussianBlur stdDeviation="15.1077"/>
<feComposite in2="hardAlpha" operator="out"/>
<feColorMatrix type="matrix" values="0 0 0 0 0.509804 0 0 0 0 0.278431 0 0 0 0 0.898039 0 0 0 0.3 0"/>
<feBlend mode="normal" in2="BackgroundImageFix" result="effect1_dropShadow_8758_27889"/>
<feBlend mode="normal" in="SourceGraphic" in2="effect1_dropShadow_8758_27889" result="shape"/>
</filter>
<linearGradient id="paint0_linear_8758_27889" x1="49.0018" y1="30.4812" x2="49.0018" y2="66.5473" gradientUnits="userSpaceOnUse">
<stop stop-color="#965EF4"/>
<stop offset="1" stop-color="#8247E5"/>
</linearGradient>
</defs>
</svg>
