<svg width="22" height="24" viewBox="0 0 22 24" fill="none" xmlns="http://www.w3.org/2000/svg">
<path d="M3.18845 10.0848C3.4201 10.5601 3.99344 11.4995 3.99344 11.4995L10.6215 0.9823L4.1527 5.31813C3.76724 5.56495 3.45101 5.89904 3.23188 6.29091C2.93727 6.8821 2.78073 7.52792 2.77323 8.18323C2.76573 8.83853 2.90744 9.48751 3.18845 10.0848Z" fill="#10151A"/>
<path d="M0.562102 13.5479C0.635139 14.5539 0.931267 15.5333 1.43065 16.4206C1.93004 17.3079 2.62116 18.0824 3.45773 18.6925L10.6128 23.4814C10.6128 23.4814 6.1362 17.2889 2.36029 11.127C1.97802 10.476 1.72103 9.76425 1.60164 9.0258C1.54878 8.69144 1.54878 8.35131 1.60164 8.01691C1.50319 8.19201 1.31207 8.55055 1.31207 8.55055C0.929208 9.30004 0.668461 10.1015 0.538937 10.9269C0.464385 11.7994 0.472138 12.6767 0.562102 13.5479Z" fill="#10151A"/>
<path d="M18.8162 14.3789C18.5845 13.9037 18.0112 12.9642 18.0112 12.9642L11.3831 23.4814L17.852 19.1484C18.2374 18.9015 18.5536 18.5674 18.7727 18.1755C19.0678 17.584 19.2246 16.9377 19.2321 16.2818C19.2396 15.6261 19.0976 14.9766 18.8162 14.3789Z" fill="#10151A"/>
<path d="M21.4425 10.9158C21.3695 9.90977 21.0733 8.93035 20.574 8.0431C20.0746 7.15584 19.3835 6.38125 18.5469 5.77117L11.3918 0.9823C11.3918 0.9823 15.8655 7.17476 19.6443 13.3366C20.0256 13.9878 20.2816 14.6996 20.4001 15.4379C20.4529 15.7722 20.4529 16.1124 20.4001 16.4468C20.4985 16.2716 20.6896 15.9131 20.6896 15.9131C21.0725 15.1636 21.3333 14.3622 21.4628 13.5368C21.5383 12.6643 21.5315 11.7871 21.4425 10.9158Z" fill="#10151A"/>
<path d="M3.23188 6.29091C3.45101 5.89904 3.76724 5.56495 4.1527 5.31813L10.6215 0.9823L3.99343 11.5022C3.99343 11.5022 3.4143 10.5628 3.18844 10.0875C2.90699 9.48992 2.76504 8.84044 2.77254 8.18461C2.78004 7.5288 2.93683 6.88247 3.23188 6.29091ZM0.562102 13.5479C0.635139 14.5539 0.931267 15.5333 1.43065 16.4206C1.93004 17.3079 2.62116 18.0824 3.45773 18.6925L10.6128 23.4814C10.6128 23.4814 6.1362 17.2889 2.36029 11.127C1.97802 10.476 1.72103 9.76425 1.60164 9.0258C1.54878 8.69144 1.54878 8.35131 1.60164 8.01691C1.50319 8.19201 1.31207 8.55055 1.31207 8.55055C0.929208 9.30004 0.668461 10.1015 0.538937 10.9269C0.464385 11.7994 0.472138 12.6767 0.562102 13.5479ZM18.8046 14.3817C18.5729 13.9064 17.9996 12.967 17.9996 12.967L11.3831 23.4814L17.852 19.1484C18.2374 18.9015 18.5536 18.5674 18.7727 18.1755C19.0678 17.584 19.2246 16.9377 19.2321 16.2818C19.2396 15.6261 19.0976 14.9766 18.8162 14.3789L18.8046 14.3817ZM21.4309 10.9186C21.3579 9.91258 21.0617 8.93313 20.5624 8.04588C20.063 7.15862 19.3719 6.38403 18.5353 5.77395L11.3918 0.9823C11.3918 0.9823 15.8655 7.17476 19.6443 13.3366C20.0256 13.9878 20.2816 14.6996 20.4001 15.4379C20.4529 15.7722 20.4529 16.1124 20.4001 16.4468C20.4985 16.2716 20.6896 15.9131 20.6896 15.9131C21.0725 15.1636 21.3333 14.3622 21.4628 13.5368C21.5383 12.6643 21.5315 11.7871 21.4425 10.9158L21.4309 10.9186Z" fill="#10151A"/>
</svg>
